<?xml version="1.0" encoding="iso-8859-1"?>
<!-- Uploaded to: SVG Repo, www.svgrepo.com, Generator: SVG Repo Mixer Tools -->
<svg height="800px" width="800px" version="1.1" id="Layer_1" xmlns="http://www.w3.org/2000/svg" xmlns:xlink="http://www.w3.org/1999/xlink" 
	 viewBox="0 0 512 512" xml:space="preserve">
<path style="fill:#3e2722;" d="M512,256.006C512,397.402,397.394,512.004,256.004,512C114.606,512.004,0,397.402,0,256.006
	C-0.007,114.61,114.606,0,256.004,0C397.394,0,512,114.614,512,256.006z"/>
<path style="fill:#3e2722;" d="M491.716,356.038c-1.795-1.691-202.438-202.525-202.944-202.999
	c-8.249-8.501-19.825-13.871-32.719-13.871c-24.945,0-45.238,19.872-45.238,44.297h1.618c-0.018,0.497-0.153,0.963-0.153,1.467
	c0,0,38.612,38.345,38.787,38.459c-1.684,4.807-2.321,10.668-2.49,16.851L84.45,331.097c-0.242,0.137-0.479,0.284-0.707,0.445
	c-7.599,5.38-10.619,16.32-7.347,26.607c1.489,4.688,4.083,8.409,7.357,10.966c0.497,0.484,0.93,1.046,1.467,1.467
	c0.497,0.484,88.772,88.719,132.225,132.523c2.301,2.32,4.607,4.635,6.912,6.95c10.371,1.278,20.931,1.947,31.648,1.946
	C361.9,512.003,452.766,447.717,491.716,356.038z"/>
<path style="fill:#F4F6F9;" d="M428.254,331.483c-0.228-0.162-0.457-0.305-0.7-0.442l-163.947-90.749
	c0.317-10.162,1.691-12.862,1.977-13.319c1.67-0.817,3.327-1.594,4.946-2.352c15.09-7.07,30.695-14.383,30.695-41.17
	c0-24.416-20.287-44.284-45.226-44.284s-45.226,19.867-45.226,44.284h15.075c0-16.106,13.522-29.209,30.15-29.209
	s30.15,13.103,30.15,29.209c0,17.202-7.818,20.868-22.017,27.519c-1.685,0.791-3.408,1.601-5.153,2.451
	c-8.221,3.999-10.13,14.878-10.454,26.789L84.447,331.041c-0.243,0.137-0.479,0.284-0.706,0.446
	c-7.597,5.377-10.614,16.316-7.346,26.598c2.893,9.094,9.841,14.748,18.123,14.748h322.969c8.281,0,15.222-5.661,18.123-14.773
	C438.876,347.78,435.851,336.852,428.254,331.483z M421.238,353.495c-0.14,0.434-1.421,4.262-3.754,4.262H94.516
	c-2.34,0-3.614-3.809-3.754-4.243c-1.178-3.695-0.515-7.872,1.457-9.543l163.774-90.661l163.795,90.665
	C421.754,345.634,422.41,349.804,421.238,353.495z"/>
</svg>